HIERARCHY
ROOT root
{
	OFFSET	0	13.1	24.9
	CHANNELS 6  Xposition Yposition Zposition Xrotation Yrotation Zrotation
	JOINT spine_1
	{
		OFFSET	0	9.99999	0
		CHANNELS 3  Xrotation Yrotation Zrotation
		JOINT spine_2
		{
			OFFSET	0	112	-10
			CHANNELS 3  Xrotation Yrotation Zrotation
			JOINT spine_3
			{
				OFFSET	0	206.5	19.3
				CHANNELS 3  Xrotation Yrotation Zrotation
				JOINT spine_4
				{
					OFFSET	0	110.4	14.6
					CHANNELS 3  Xrotation Yrotation Zrotation
					JOINT neck_1
					{
						OFFSET	0	71.8	-50.3
						CHANNELS 3  Xrotation Yrotation Zrotation
						JOINT neck_2
						{
							OFFSET	0	86.2	-25.8
							CHANNELS 3  Xrotation Yrotation Zrotation
							JOINT head_ee
							{
								OFFSET	0	179.8	-8.7
								CHANNELS 3  Xrotation Yrotation Zrotation
								End Site
								{
									OFFSET	1	0	0
								}
							}
						}
					}
					JOINT left_clavicle
					{
						OFFSET	-43.2	22.4	-70.8
						CHANNELS 3  Xrotation Yrotation Zrotation
						JOINT left_shoulder
						{
							OFFSET	-93.9	-5.79999	48.7
							CHANNELS 3  Xrotation Yrotation Zrotation
							JOINT left_elbow
							{
								OFFSET	-291.4	-30.8	15.2
								CHANNELS 3  Xrotation Yrotation Zrotation
								JOINT left_lowarm_twist
								{
									OFFSET	-110.7	-3.89999	13.6
									CHANNELS 3  Xrotation Yrotation Zrotation
									JOINT left_hand
									{
										OFFSET	-110.7	-3.89999	13.6
										CHANNELS 3  Xrotation Yrotation Zrotation
										JOINT left_ee
										{
											OFFSET	-80.8	-5.10001	12.1
											CHANNELS 3  Xrotation Yrotation Zrotation
											End Site
											{
												OFFSET	1	0	0
											}
										}
									}
								}
							}
						}
					}
					JOINT right_clavicle
					{
						OFFSET	43.2	22.4	-70.8
						CHANNELS 3  Xrotation Yrotation Zrotation
						JOINT right_shoulder
						{
							OFFSET	93.9	-5.79999	48.7
							CHANNELS 3  Xrotation Yrotation Zrotation
							JOINT right_elbow
							{
								OFFSET	291.4	-30.8	15.2
								CHANNELS 3  Xrotation Yrotation Zrotation
								JOINT right_lowarm_twist
								{
									OFFSET	110.7	-3.89999	13.6
									CHANNELS 3  Xrotation Yrotation Zrotation
									JOINT right_hand
									{
										OFFSET	110.7	-3.89999	13.6
										CHANNELS 3  Xrotation Yrotation Zrotation
										JOINT right_ee
										{
											OFFSET	80.8	-5.10001	12.1
											CHANNELS 3  Xrotation Yrotation Zrotation
											End Site
											{
												OFFSET	1	0	0
											}
										}
									}
								}
							}
						}
					}
				}
			}
		}
	}
	JOINT left_hip
	{
		OFFSET	-82.8	-127.5	0.300001
		CHANNELS 3  Xrotation Yrotation Zrotation
		JOINT left_knee
		{
			OFFSET	-28.2	-396.7	2.2
			CHANNELS 3  Xrotation Yrotation Zrotation
			JOINT left_ankle
			{
				OFFSET	-11.7	-411.3	35.4
				CHANNELS 3  Xrotation Yrotation Zrotation
				JOINT left_toes
				{
					OFFSET	0	-60	-88.6
					CHANNELS 3  Xrotation Yrotation Zrotation
					JOINT left_foot_ee
					{
						OFFSET	-22.5	-16.5	-42.2
						CHANNELS 3  Xrotation Yrotation Zrotation
						End Site
						{
							OFFSET	1	0	0
						}
					}
				}
			}
		}
	}
	JOINT right_hip
	{
		OFFSET	82.8	-127.5	0.300001
		CHANNELS 3  Xrotation Yrotation Zrotation
		JOINT right_knee
		{
			OFFSET	28.2	-396.7	2.2
			CHANNELS 3  Xrotation Yrotation Zrotation
			JOINT right_ankle
			{
				OFFSET	11.7	-411.3	35.4
				CHANNELS 3  Xrotation Yrotation Zrotation
				JOINT right_toes
				{
					OFFSET	0	-60	-88.6
					CHANNELS 3  Xrotation Yrotation Zrotation
					JOINT right_foot_ee
					{
						OFFSET	22.5	-16.5	-42.2
						CHANNELS 3  Xrotation Yrotation Zrotation
						End Site
						{
							OFFSET	1	0	0
						}
					}
				}
			}
		}
	}
}
MOTION
Frames: 9
Frame Time: 0.02
1372.05 701.618 -1475.22 -149.331893084 86.1269529973 156.919085115 1.35609 -1.16819 -5.17025 1.37056 -0.837293 -5.23387 1.44986 0.146635 -5.29821 1.41137 -0.690781 -5.25515 -14.8654 -0.975631 4.39767 -14.8282 -4.48893 3.83971 -0.0 0.0 -0.0 10.9812 -21.4696 21.5002 12.6651 -27.3453 63.6141 2.45026 -50.5082 1.15597 -9.69831 -0.44088 1.15741 -0.985314 -14.5137 -12.8877 -0.0 0.0 -0.0 -4.47149 -20.4555 4.1542 -21.2691 7.2002 -70.128 0.769784 20.8732 -0.141792 64.5726 2.19749 7.51317 3.77911 -4.64312 -27.9838 0.0 0.0 0.0 -31.2674 -34.4872 -14.8974 4.21251 -0.196251 -0.616389 27.3586 27.5125 -3.85626 33.1344 -0.0 -0.0 -0.0 0.0 -0.0 27.0894 -35.2427 -0.302638 -11.2135 -0.29687 -1.69255 7.1643 7.07095 1.06481 -35.7075 0.0 0.0 0.0 0.0 0.0 
1332.55444405 706.157 -1491.70280937 -163.10530225 82.8875620186 170.433807403 1.2401 -1.09898 -5.219 1.25492 -0.765126 -5.27812 1.32864 0.237386 -5.32787 1.28956 -0.605823 -5.29871 -13.848 -0.0384885 3.97531 -13.808 -2.51321 3.76756 -0.0 0.0 -0.0 10.7528 -23.2741 20.8274 10.9171 -27.1746 64.5019 2.18095 -47.2064 0.953071 -8.40596 -0.370877 1.00766 -0.507197 -13.4299 -9.15716 -0.0 0.0 -0.0 -4.56485 -19.0863 4.62362 -20.3435 8.75798 -70.1889 0.784844 21.2454 -0.147204 63.5647 2.10136 7.42676 3.61251 -1.86292 -25.6826 0.0 0.0 0.0 -30.2051 -35.588 -14.4329 -1.17833 0.0467219 0.174792 27.189 26.6157 -3.8131 38.4863 -0.0 -0.0 -0.0 0.0 -0.0 25.5957 -35.1218 -0.101886 -13.9232 -0.318526 -2.10771 9.6758 5.53424 1.41559 -39.1912 0.0 0.0 0.0 0.0 0.0 
1332.75025032 706.157 -1492.16436839 -161.386882355 83.5269019668 168.703268464 1.2401 -1.09898 -5.219 1.25492 -0.765126 -5.27812 1.32864 0.237386 -5.32787 1.28956 -0.605823 -5.29871 -13.848 -0.0384885 3.97531 -13.808 -2.51321 3.76756 -0.0 0.0 -0.0 10.7528 -23.2741 20.8274 10.9171 -27.1746 64.5019 2.18095 -47.2064 0.953071 -8.40596 -0.370877 1.00766 -0.507197 -13.4299 -9.15716 -0.0 0.0 -0.0 -4.56485 -19.0863 4.62362 -20.3435 8.75798 -70.1889 0.784844 21.2454 -0.147204 63.5647 2.10136 7.42676 3.61251 -1.86292 -25.6826 0.0 0.0 0.0 -30.2051 -35.588 -14.4329 -1.17833 0.0467219 0.174792 27.189 26.6157 -3.8131 38.4863 -0.0 -0.0 -0.0 0.0 -0.0 25.5957 -35.1218 -0.101886 -13.9232 -0.318526 -2.10771 9.6758 5.53424 1.41559 -39.1912 0.0 0.0 0.0 0.0 0.0 
1318.16710793 712.125 -1497.65698504 -165.840758457 82.0399066785 173.200415786 1.22603 -1.00319 -5.24289 1.24106 -0.668018 -5.29589 1.30597 0.338646 -5.32702 1.26675 -0.505689 -5.3138 -13.7843 -0.619956 4.36761 -13.7412 -3.86709 3.96276 -0.0 0.0 -0.0 10.7937 -24.3517 20.817 9.34926 -27.3588 64.3711 2.07781 -45.8213 0.878237 -8.94068 -0.399431 1.06981 -0.450709 -17.7128 -10.5798 -0.0 0.0 -0.0 -3.9276 -18.9083 3.69727 -19.4892 8.68728 -70.224 0.656335 18.0109 -0.104019 61.8225 1.93884 7.27346 2.82676 -1.90286 -20.0041 0.0 0.0 0.0 -28.8549 -36.4514 -14.8081 -4.59875 0.161839 0.687026 24.9625 27.5361 -3.55891 40.1756 -0.0 -0.0 -0.0 0.0 -0.0 23.3034 -33.8063 -1.34462 -12.668 -0.310935 -1.91528 12.2608 1.69664 1.75234 -40.1404 0.0 0.0 0.0 0.0 0.0 
1271.62289519 715.581 -1513.68897286 -176.05266583 75.7322315723 -176.066117088 1.07999 -1.09878 -5.30283 1.09531 -0.759621 -5.36176 1.17041 0.27351 -5.40826 1.13009 -0.582789 -5.38379 -12.4888 -3.19578 6.63642 -12.4222 -10.2891 5.44755 -0.0 0.0 -0.0 10.0966 -25.844 19.0967 5.26869 -27.5037 66.4282 2.07481 -45.78 0.876086 -9.29463 -0.418651 1.1108 0.0407708 -11.9387 -4.8043 -0.0 0.0 -0.0 -3.83224 -18.4195 3.65992 -16.7873 11.0002 -70.2754 0.664605 18.223 -0.10659 60.0896 1.78192 7.11619 0.147013 0.440929 -0.796896 0.0 0.0 0.0 -23.0231 -36.0461 -14.4082 -20.4433 0.290106 3.10715 35.847 26.1995 -4.78748 39.5511 -0.0 -0.0 -0.0 0.0 -0.0 16.1944 -28.597 -4.48759 -13.8221 -0.31807 -2.0922 20.6095 4.65197 2.86548 -39.1795 0.0 0.0 0.0 0.0 0.0 
1272.32790529 715.581 -1515.48126027 -175.753192095 76.7557250303 -176.374421918 1.07999 -1.09878 -5.30283 1.09531 -0.759621 -5.36176 1.17041 0.27351 -5.40826 1.13009 -0.582789 -5.38379 -12.4888 -3.19578 6.63642 -12.4222 -10.2891 5.44755 -0.0 0.0 -0.0 10.0966 -25.844 19.0967 5.26869 -27.5037 66.4282 2.07481 -45.78 0.876086 -9.29463 -0.418651 1.1108 0.0407708 -11.9387 -4.8043 -0.0 0.0 -0.0 -3.83224 -18.4195 3.65992 -16.7873 11.0002 -70.2754 0.664605 18.223 -0.10659 60.0896 1.78192 7.11619 0.147013 0.440929 -0.796896 0.0 0.0 0.0 -23.0231 -36.0461 -14.4082 -20.4433 0.290106 3.10715 35.847 26.1995 -4.78748 39.5511 -0.0 -0.0 -0.0 0.0 -0.0 16.1944 -28.597 -4.48759 -13.8221 -0.31807 -2.0922 20.6095 4.65197 2.86548 -39.1795 0.0 0.0 0.0 0.0 0.0 
1209.24013 714.597 -1526.82410355 178.18639712 67.0487391507 -167.780129755 0.582509 -0.778685 -5.73373 0.600692 -0.412877 -5.77149 0.648631 0.746256 -5.73803 0.602757 -0.167754 -5.78376 -13.0987 -6.5452 4.85259 -13.1885 -15.4824 2.65824 -0.0 0.0 -0.0 7.30067 -25.8598 12.9014 5.31449 -30.5285 72.255 1.38551 -34.4615 0.429721 -12.2433 -0.588554 1.44757 0.831395 -5.38764 3.32379 -0.0 0.0 -0.0 -3.25009 -9.28909 4.58126 -10.9947 12.0833 -69.6857 0.601846 16.6014 -0.0878081 60.1775 1.78975 7.12428 -2.47325 -5.54222 14.0327 0.0 0.0 0.0 -13.2003 -35.6381 -15.9073 -38.2212 -0.357498 5.74765 35.1411 23.4048 -4.63351 40.1326 -0.0 -0.0 -0.0 0.0 -0.0 7.35046 -20.9208 -12.3293 -13.7412 -0.317687 -2.07979 38.1225 16.3057 5.03944 -39.2319 0.0 0.0 0.0 0.0 0.0 
1211.24475122 714.597 -1532.76745205 178.012783563 69.151877375 -167.593045106 0.582509 -0.778685 -5.73373 0.600692 -0.412877 -5.77149 0.648631 0.746256 -5.73803 0.602757 -0.167754 -5.78376 -13.0987 -6.5452 4.85259 -13.1885 -15.4824 2.65824 -0.0 0.0 -0.0 7.30067 -25.8598 12.9014 5.31449 -30.5285 72.255 1.38551 -34.4615 0.429721 -12.2433 -0.588554 1.44757 0.831395 -5.38764 3.32379 -0.0 0.0 -0.0 -3.25009 -9.28909 4.58126 -10.9947 12.0833 -69.6857 0.601846 16.6014 -0.0878081 60.1775 1.78975 7.12428 -2.47325 -5.54222 14.0327 0.0 0.0 0.0 -13.2003 -35.6381 -15.9073 -38.2212 -0.357498 5.74765 35.1411 23.4048 -4.63351 40.1326 -0.0 -0.0 -0.0 0.0 -0.0 7.35046 -20.9208 -12.3293 -13.7412 -0.317687 -2.07979 38.1225 16.3057 5.03944 -39.2319 0.0 0.0 0.0 0.0 0.0 
1190.70297138 717.122 -1537.68634613 -179.542196988 66.7641440664 -168.484991894 0.698428 -0.549586 -5.7887 0.717039 -0.180758 -5.81184 0.740731 0.9737 -5.73281 0.694906 0.0576833 -5.81436 -12.5592 -6.77898 2.98059 -12.6635 -14.764 0.86704 -0.0 0.0 -0.0 6.59077 -26.7246 11.2563 4.18555 -31.0495 73.8862 1.07209 -27.9711 0.267022 -12.2328 -0.587915 1.44638 0.960804 -2.72699 5.30932 -0.0 0.0 -0.0 -3.70204 -6.73796 5.89376 -6.49226 13.8144 -70.6749 0.542787 15.0499 -0.0717004 59.8227 1.75817 7.09155 -3.22168 -8.94822 17.3255 0.0 0.0 0.0 -9.98568 -36.4542 -15.9309 -42.1309 -0.607869 6.29398 28.7088 24.7088 -3.94998 39.9165 -0.0 -0.0 -0.0 0.0 -0.0 5.73845 -19.4593 -16.1305 -12.3671 -0.308489 -1.86916 38.9963 19.1937 5.22858 -37.9173 0.0 0.0 0.0 0.0 0.0 
